<?xml version="1.0" standalone="no"?>
<!DOCTYPE svg PUBLIC "-//W3C//DTD SVG 20010904//EN"
 "http://www.w3.org/TR/2001/REC-SVG-20010904/DTD/svg10.dtd">
<svg version="1.0" xmlns="http://www.w3.org/2000/svg"
 width="700.000000pt" height="700.000000pt" viewBox="0 0 700.000000 700.000000"
 preserveAspectRatio="xMidYMid meet">
<metadata>
Created by potrace 1.11, written by Peter Selinger 2001-2013
</metadata>
<g transform="translate(0.000000,700.000000) scale(0.100000,-0.100000)"
fill="#000000" stroke="none">
<path d="M1816 6241 c-2 -3 -11 -31 -19 -61 -8 -30 -29 -102 -45 -160 -17 -57
-29 -107 -27 -110 2 -3 157 -6 345 -5 188 0 345 -2 350 -5 7 -5 -14 -87 -170
-660 -63 -235 -92 -342 -104 -390 -2 -8 -16 -58 -30 -110 -15 -52 -29 -102
-31 -110 -2 -8 -62 -233 -135 -500 -72 -267 -154 -568 -181 -670 -28 -102 -57
-210 -65 -240 -8 -30 -24 -86 -34 -125 -10 -38 -35 -131 -55 -205 -20 -74 -49
-182 -65 -240 -76 -286 -283 -1052 -297 -1100 -9 -30 -18 -62 -19 -70 -11 -50
-102 -372 -108 -377 -3 -4 -150 -7 -326 -6 l-320 0 -15 -51 c-35 -125 -72
-286 -66 -290 10 -5 4719 -2 4724 4 4 5 23 71 76 273 12 42 30 112 42 155 11
42 61 228 110 412 98 364 172 641 251 930 28 102 52 192 54 200 1 8 14 57 28
108 15 51 26 95 26 98 0 2 -100 4 -223 4 l-222 0 -21 -77 c-12 -43 -61 -220
-109 -393 -48 -173 -91 -328 -95 -345 -17 -62 -90 -326 -135 -485 -25 -91 -48
-172 -50 -180 -18 -72 -98 -356 -101 -359 -2 -2 -229 -5 -504 -5 l-500 -1 0
25 c0 14 25 147 55 295 31 149 58 284 61 300 69 392 313 848 729 1365 11 14
67 74 125 133 181 187 339 290 519 338 79 22 81 23 82 53 0 17 2 40 4 51 5 29
25 198 25 212 0 6 -8 10 -17 8 -92 -18 -132 -32 -218 -75 -160 -79 -393 -280
-555 -480 -25 -30 -47 -57 -50 -60 -10 -9 -175 -224 -212 -275 -140 -197 -262
-396 -368 -602 -40 -76 -74 -140 -76 -142 -8 -9 -13 7 -34 109 -12 58 -53 228
-91 378 -206 819 -401 1147 -698 1179 l-58 5 -94 -69 c-52 -39 -128 -92 -169
-118 -41 -27 -78 -53 -82 -59 -13 -19 -9 -86 6 -92 7 -3 38 2 67 10 104 30
185 24 267 -18 48 -25 141 -122 180 -189 103 -172 240 -562 346 -982 68 -270
82 -395 60 -540 -7 -44 -15 -98 -19 -120 -3 -22 -8 -51 -11 -65 -3 -14 -8 -35
-10 -48 -3 -12 -14 -62 -25 -110 -12 -48 -22 -94 -24 -102 -7 -37 -38 -152
-61 -226 -17 -57 -29 -83 -41 -85 -25 -6 -1712 -3 -1717 2 -3 4 50 204 184
689 97 352 452 1657 455 1674 3 10 9 33 15 51 6 18 12 41 14 51 2 11 10 39 17
64 7 25 13 50 14 55 2 6 12 45 24 87 12 42 32 117 45 165 13 48 65 239 115
423 88 322 109 400 222 810 28 102 52 192 54 200 17 84 141 517 150 525 8 6
147 10 374 10 199 -1 365 3 367 7 3 4 18 56 34 115 17 59 37 130 45 157 8 26
15 52 15 56 0 8 -1969 9 -1974 1z"/>
<path d="M5305 6241 c-4 -7 -95 -325 -95 -332 0 -3 185 -5 411 -4 226 0 414
-2 419 -5 7 -5 -31 -153 -126 -495 -20 -71 -37 -138 -39 -147 -3 -14 -35 -134
-51 -190 -5 -17 11 -18 228 -18 l233 0 23 83 c12 45 38 141 57 212 19 72 53
197 76 278 22 82 42 156 44 165 2 9 13 51 24 92 24 86 69 251 80 295 4 17 11
39 15 51 l6 20 -650 1 c-358 0 -653 -3 -655 -6z"/>
</g>
</svg>
