<?xml version="1.0" encoding="UTF-8" standalone="no"?>
<!-- Created with Inkscape (http://www.inkscape.org/) -->

<svg
   xmlns:dc="http://purl.org/dc/elements/1.1/"
   xmlns:cc="http://creativecommons.org/ns#"
   xmlns:rdf="http://www.w3.org/1999/02/22-rdf-syntax-ns#"
   xmlns:svg="http://www.w3.org/2000/svg"
   xmlns="http://www.w3.org/2000/svg"
   xmlns:sodipodi="http://sodipodi.sourceforge.net/DTD/sodipodi-0.dtd"
   xmlns:inkscape="http://www.inkscape.org/namespaces/inkscape"
   version="1.1"
   id="svg2"
   xml:space="preserve"
   width="512"
   height="512"
   viewBox="0 0 512 512"
   sodipodi:docname="yatian_liu_logo.svg"
   inkscape:version="0.92.5 (2060ec1f9f, 2020-04-08)"><metadata
     id="metadata8"><rdf:RDF><cc:Work
         rdf:about=""><dc:format>image/svg+xml</dc:format><dc:type
           rdf:resource="http://purl.org/dc/dcmitype/StillImage" /><dc:title></dc:title></cc:Work></rdf:RDF></metadata><defs
     id="defs6"><clipPath
       clipPathUnits="userSpaceOnUse"
       id="clipPath22"><path
         d="M 0,792 H 612 V 0 H 0 Z"
         id="path20"
         inkscape:connector-curvature="0" /></clipPath></defs><sodipodi:namedview
     pagecolor="#ffffff"
     bordercolor="#666666"
     borderopacity="1"
     objecttolerance="10"
     gridtolerance="10"
     guidetolerance="10"
     inkscape:pageopacity="0"
     inkscape:pageshadow="2"
     inkscape:window-width="2560"
     inkscape:window-height="1315"
     id="namedview4"
     showgrid="false"
     width="512px"
     inkscape:zoom="2.0371094"
     inkscape:cx="152.91275"
     inkscape:cy="256"
     inkscape:window-x="0"
     inkscape:window-y="0"
     inkscape:window-maximized="1"
     inkscape:current-layer="g10" /><g
     id="g10"
     inkscape:groupmode="layer"
     inkscape:label="176_project3"
     transform="matrix(1.3333333,0,0,-1.3333333,0,512)"><g
       id="g44"
       transform="matrix(1.4101977,0,0,1.4101977,-92.278421,-70.282355)"><g
         transform="translate(180.18799,279.49028)"
         id="g12"><path
           inkscape:connector-curvature="0"
           id="path14"
           style="fill:#231f20;fill-opacity:1;fill-rule:nonzero;stroke:none"
           d="M 0,0 -50.929,-187.002 H 70.214 l 19.871,71.738 h 17.366 L 84.574,-200.328 H -99.52 l 3.34,13.326 h 25.381 L -20.205,0 h -27.719 l 3.841,13.327 h 76.81 L 29.054,0 Z" /></g><g
         transform="translate(-104.41211,-210.01072)"
         id="g16"><g
           clip-path="url(#clipPath22)"
           id="g18"><g
             transform="translate(285.6855,292.8086)"
             id="g24"><path
               inkscape:connector-curvature="0"
               id="path26"
               style="fill:#231f20;fill-opacity:1;fill-rule:nonzero;stroke:none"
               d="m 0,0 -0.562,0.665 0.475,3.573 0.781,0.664 c 6.504,0.384 10.179,0.66 11.025,0.826 0.845,0.165 1.498,0.426 1.96,0.788 0.462,0.359 1.013,1.217 1.653,2.576 0.64,1.356 1.722,5.111 3.248,11.259 1.525,6.149 2.615,11.176 3.27,15.083 0.655,3.907 1.009,6.552 1.063,7.936 0.187,4.821 -1.809,14.298 -5.987,28.43 -4.18,14.131 -7.981,23.58 -11.404,28.346 -3.423,4.769 -7.29,7.154 -11.597,7.156 -1.845,0.002 -4.104,-0.525 -6.774,-1.575 l -0.9,0.581 -0.232,2.661 0.542,0.997 c 4.87,2.988 9.269,6.088 13.2,9.3 3.016,-0.114 5.622,-0.696 7.82,-1.749 2.195,-1.055 4.416,-2.954 6.659,-5.699 2.244,-2.742 4.581,-7.025 7.012,-12.844 2.431,-5.82 4.815,-13.246 7.15,-22.279 2.335,-9.033 4.131,-16.819 5.388,-23.357 7.132,15.122 16.384,29.411 27.76,42.869 11.375,13.457 21.641,20.683 30.799,21.674 l -1.388,-11.968 c -3.49,-0.551 -6.962,-1.74 -10.418,-3.567 C 77.087,100.52 73.224,97.531 68.951,93.377 64.678,89.224 59.76,83.229 54.197,75.392 48.634,67.554 44.345,60.45 41.329,54.082 38.312,47.711 36.15,41.396 34.846,35.137 31.552,19.457 29.875,10.841 29.815,9.29 29.755,7.74 30.137,6.768 30.96,6.381 31.785,5.993 34.038,5.659 37.719,5.379 L 44.329,4.877 44.89,4.212 44.416,0.639 43.635,-0.026 C 36.434,0.367 29.057,0.563 21.505,0.568 14.12,0.572 6.951,0.385 0,0" /></g><g
             transform="translate(376.1904,502.8276)"
             id="g28"><path
               inkscape:connector-curvature="0"
               id="path30"
               style="fill:#231f20;fill-opacity:1;fill-rule:nonzero;stroke:none"
               d="M 0,0 -3.722,-13.327 H 28.995 L 20.016,-46.549 H 38.148 L 50.729,0 Z" /></g></g></g></g></g></svg>